# xmcd
#
# Track frame offsets: 
#        182
#        17207
#        33042
#        56680
#        72127
#        86400
#        102387
#        115782
#        133375
#        148727
#
# Disc length: 2180 seconds
#
# Revision: 1
# Processed by: cddbd v1.5PL3 Copyright (c) Steve Scherf et al.
# Submitted via: ExactAudioCopy v0.95a3
#
DISCID=8908820a
DTITLE=Claudia Church - Claudia Church
DYEAR=1999
DGENRE=Country
TTITLE0=What's The Matter With You Baby
TTITLE1=This Man I Love
TTITLE2=Home In My Heart (North Carolina)
TTITLE3=Lost In A Feeling
TTITLE4=It's All Your Fault
TTITLE5=The Streets Of Nashville
TTITLE6=Just As Long As You Love Me
TTITLE7=I Don't Fall In Love So Easy
TTITLE8=Small Town Girl
TTITLE9=Will You Still Love Me Tomorrow
EXTD=
EXTT0=
EXTT1=
EXTT2=
EXTT3=
EXTT4=
EXTT5=
EXTT6=
EXTT7=
EXTT8=
EXTT9=
PLAYORDER=
